<?xml version="1.0" encoding="iso-8859-1"?>
<!DOCTYPE svg >
<svg version="1.1" xmlns="http://www.w3.org/2000/svg" xmlns:xlink="http://www.w3.org/1999/xlink" x="0px" y="0px"
	 width="46.147px" height="44.633px" viewBox="0 0 46.147 44.633" style="enable-background:new 0 0 46.147 44.633;"
	 xml:space="preserve">
<path style="fill-rule:evenodd;clip-rule:evenodd;fill:#000;" d="M41.433,33.029l-1.155-18.445
	c-0.168-2.106-2.176-3.785-4.488-3.785h-3.773V7.734h5.995V0H20.777v7.734h5.994v3.065H10.358c-2.313,0-4.322,1.678-4.489,3.785
	L4.713,33.029H0v11.604h46.147V33.029H41.433z M23.624,5.652V2.529h11.539v3.123H23.624z M31.692,29.004h3.147v3.122h-3.147V29.004z
	 M31.692,26.474v-3.123h3.147v3.123H31.692z M31.692,20.821v-3.123h3.147v3.123H31.692z M26.146,17.698h3.147v3.123h-3.147V17.698z
	 M26.146,23.351h3.147v3.123h-3.147V23.351z M26.146,29.004h3.147v3.122h-3.147V29.004z M8.761,17.698H20.6v5.653H8.761V17.698z
	 M43.231,40.602H2.916v-3.123h40.316V40.602z"/>
</svg>
