<?xml version="1.0" encoding="iso-8859-1"?>
<!DOCTYPE svg>
<svg version="1.1" xmlns="http://www.w3.org/2000/svg" xmlns:xlink="http://www.w3.org/1999/xlink" x="0px" y="0px"
	 width="169px" height="83.963px" viewBox="0 0 169 83.963" style="enable-background:new 0 0 169 83.963;" xml:space="preserve">
<path style="fill:#000;" d="M58.003,51.834c-1.242-0.347-1.311,0.069-1.448-0.623c-0.138-0.692-0.966-0.692-1.724-0.692
	c-0.759,0-1.035-0.069-1.656-0.623c-0.621-0.553-1.931-0.622-2.345-0.761c-0.414-0.138-0.207-1.314-1.034-2.42
	c-0.828-1.106-2.552-1.314-3.656-1.937s-0.759-3.043-2.345-2.835c-1.586,0.208-1.724,0.83-3.172,0.069
	c-1.448-0.76-2.414-1.245-3.173-0.691c-0.758,0.553-1.724,1.59-2.207,1.867c-0.482,0.277-1.311-0.207-1.793-0.138
	c-0.483,0.069-1.035-0.484-1.379-0.968c-0.345-0.484,0.621-2.905-0.275-2.905c-0.897,0-2.069-0.415-2.069-0.761
	c0-0.346,1.862-2.42,1.311-2.766c-0.552-0.346-1.656-0.139-2.621,1.175c-0.966,1.314-1.862,1.245-2.345,0.761
	c-0.483-0.484-1.586-3.319-0.69-4.91c0.896-1.59,2.345-2.352,3.448-2.282c1.104,0.069,0.966-0.276,2.069-0.346
	c1.104-0.069,2.483,0.276,2.759,0.692c0.275,0.415-0.276,1.106,0.414,1.936c0.69,0.83,1.104,0.484,1.172,0.83
	c0.069,0.346-0.551,0.691-0.828,0.691c-0.275,0-2.552,0.623-1.655,1.038c0.897,0.415,2.483,0.069,2.828,0.622
	c0.345,0.554-1.104,1.729,0.966,1.798c2.069,0.069,3.448,0.346,4.621,0.415c1.173,0.069,2,0.139,2.138,0.415
	c0.138,0.277,0.965-1.038-0.965-1.038c-1.932,0-3.449-1.106-4.483-1.313c-1.035-0.208-1.724-0.899-1.793-1.729
	c-0.069-0.83,0.069-1.452-0.344-2.144c-0.414-0.691-1.449-2.351-0.483-3.043c0.966-0.692,2.897-2.006,3.38-2.905
	c0.482-0.899,0.482-1.106,1.586-1.798s2.415-1.591,3.035-2.213c0.621-0.622,1.655-1.59,1.862-1.106
	c0.207,0.484,1.173,0.623,2.345,0.207c1.172-0.415,2.621-1.452,1.379-1.452c-1.242,0-2-0.346-1.655-0.83
	c0.345-0.484-0.828-0.692-1.173-0.622c-0.345,0.069-0.345-0.692,0.828-0.9c1.173-0.207,0.207,0.83,1.173,0.761
	c0.965-0.069,1.586-0.83,2.276-0.969c0.689-0.138,0.966,0.485,0.069,1.107c-0.896,0.622-1.172,0.415,0,0.691
	c1.172,0.277,1.517,0.899,2.207,0.277c0.69-0.623-0.138-0.83-0.207-1.66c-0.069-0.83,0.138-2.352-0.621-2.905
	c-0.759-0.553-0.759-1.244-0.759-1.798c0-0.553,0.138-1.729-0.621-1.176s-1.379,0.899-1.655,0.623
	c-0.276-0.277,0.138-0.83-0.482-1.245c-0.621-0.415-0.69-1.038-1.449-0.969c-0.759,0.07-1.518-0.553-1.931,0.346
	s-0.828,1.66-0.965,1.937c-0.138,0.277,0.482,1.245-0.069,1.729c-0.552,0.484-2.069,1.176-2.276,1.66
	c-0.207,0.484-1.035,1.729-1.241,0.899c-0.207-0.829,0.689-2.075-0.552-2.42c-1.242-0.346-2.207-0.069-2.414-0.83
	s-0.758-1.453,0.482-2.075c1.242-0.623,2.483-1.729,3.656-1.867c1.173-0.138,0.345,0.83,1.311,0.761
	c0.965-0.069-0.138-0.554,1.034-0.761c1.173-0.207,0.966-0.207,0.621-0.623c-0.345-0.415-0.138-0.484,0.759-0.899
	c0.896-0.415,0.207-0.692,1.104-1.037c0.896-0.346,1.104-0.692,1.586-0.692c0.482,0,0.414,0.207,0.138,0.83
	c-0.276,0.622-0.483,1.037,0.345,0.622c0.828-0.415,1.241-0.691,0.621-0.069c-0.621,0.623-1.035,0.623-1.932,0.761
	c-0.896,0.138-0.62,0.277-0.207,0.761c0.414,0.484,1.449,0.553,1.793,0.83s0.759,1.245,1.586,0.76
	c0.828-0.484,0.207-0.553,1.31-1.037c1.104-0.484,2.69-0.761,2.552-1.383c-0.138-0.622-1.242-0.968-1.38-1.729
	C52.555,6.05,54.21,5.635,52.072,5.29c-2.138-0.346-0.896-0.623-1.931-0.623s-2.965,0-3.655,0.346
	c-0.69,0.346-1.104-0.208-1.448,0.346c-0.345,0.553,0.069,1.314-0.276,1.314s-0.966,0.553-1.242,0
	c-0.276-0.553-0.896-1.106-0.069-1.314c0.828-0.208,0.966-0.069,1.104-0.692c0.138-0.622-1.172-0.553-0.414-0.691
	c0.758-0.138,1.103,0.069,2.138,0.069c1.034,0,3.379,0.415,3.724-0.207c0.345-0.623-0.552-0.623-1.586-0.692
	c-1.034-0.069-2.828-0.415-3.586-0.069c-0.759,0.345-1.724,0.899-2.069,1.452c-0.345,0.553-0.345-0.138-1.035,0
	c-0.69,0.138-1.862,0.899-1.242,1.314c0.621,0.415,0.621,0.899-0.069,0.899c-0.689,0-0.896,0.692-1.379,0.692
	s-1.793-0.069-1.172-0.415c0.621-0.346,1.311-0.346,1.241-1.176c-0.069-0.83,0.69-1.106,0.69-1.384c0-0.276-1.655,0.623-2.966,0.208
	c-1.311-0.415-1.862-1.037-3.172-0.968s-3.035,1.798-2.208,1.937c0.828,0.138,1.449-0.138,1.587,0.276
	c0.138,0.416-0.138,0.761,0.345,0.969c0.482,0.208,1.379,0.76,0.207,0.484c-1.172-0.276-0.621-0.761-2.414-0.83
	c-1.793-0.069-2.896-0.623-4.759-0.138c-1.862,0.484-1.586,0.899-2.828,0.484c-1.242-0.415-3.863-1.383-5.932-0.969
	c-2.069,0.416-4.621,1.107-5.242,1.522c-0.621,0.415,0.621,0.83-0.482,0.899c-1.104,0.069-3.725,0-3.173,0.692
	c0.552,0.692,1.242,0.761,0.414,0.899c-0.827,0.138-1.931,0.208-2.344,0.83c-0.415,0.623-1.932,0.968-0.966,1.246
	c0.966,0.276,2.552,0.899,1.862,0.968C7.035,13.035,3.518,14.419,2,14.764c-1.517,0.346-2.759,2.006-1.448,1.521
	c1.664-0.614,6.138-2.006,6.966-2.351c0.828-0.346,1.172-0.069,1.103,0.415c-0.069,0.484,0.966-0.208,1.793-0.83
	c0.827-0.622,0.827-1.867,1.518-1.452c0.689,0.415,1.103,0,1.655-0.138c0.551-0.138,1.103-0.484,1.586-0.208
	c0.482,0.277,1.724,0.553,2.069,0.83c0.345,0.276,0.483,0.899,0.138,0.968s-0.414,0.415-0.345,0.968
	c0.069,0.553,0.345,1.037-0.345,1.176c-0.69,0.138-0.552,0.968-0.138,0.899c0.414-0.069,0.689-0.276,0.759-0.691
	c0.069-0.415,0.965-1.176,0.828-0.623c-0.138,0.553-0.483,1.107-0.483,1.522c0,0.415-0.483,0.346-0.551,0.761
	c-0.069,0.415,0.068,0.415,0.413,0.761c0.345,0.346,0.138,0.553,0.069,1.314c-0.069,0.761-2.138,2.836-2.414,3.527
	c-0.276,0.691-0.138,1.659-0.138,2.42s-0.276,1.729,0.482,2.006c0.759,0.277,0.828,0.415,0.828,1.106c0,0.692,0,1.521,0.414,2.006
	c0.414,0.484,0.207,0.415,0.207,1.176s0.482,0.346,0.551,0.968c0.069,0.623-0.345,0.899,0.345,1.383
	c0.689,0.484,1.448,0.83,1.104,0.069s-0.552-1.383-0.897-2.49c-0.345-1.106-0.552-3.112-0.138-2.489
	c0.414,0.623,0.966,2.489,1.586,3.803c0.621,1.314,1.379,1.176,1.379,2.144s-0.758,1.867,0.759,2.489
	c1.518,0.623,2.621,1.937,3.518,1.798c0.897-0.138,1.448-0.691,1.793-0.069c0.345,0.623,1.104,1.453,1.931,1.453
	s1.104,0.553,1.241,1.383c0.138,0.83,0.69,0.968,1.517,1.245c0.828,0.277,1.035,1.176,1.656,1.106
	c0.62-0.069,1.448-0.346,1.448,0.277s0.276,2.144-0.759,3.112c-1.035,0.968-1.517,1.66-0.965,2.283
	c0.551,0.622,0.069,1.245-0.207,1.729c-0.276,0.484,0.207,0.899,0.758,1.66c0.552,0.761,1.311,1.66,1.793,3.181
	c0.483,1.521,1.173,2.075,2.345,2.559c1.173,0.484,2.069,1.314,2.069,2.49c0,1.176-0.069,5.187-0.069,6.363
	c0,1.175,0.621,2.351,0.414,3.25c-0.208,0.899,0,1.66,0.275,2.005c0.276,0.346,0.207,1.106,0.276,1.868
	c0.069,0.761,0.897,0.207,0.897,0.899s-0.345,1.729,0.069,2.074c0.414,0.346-0.483,1.591,1.379,2.767
	c1.862,1.176,2,1.245,2.138,1.453c0.138,0.208,0.758-0.415,0.758-0.07c0,0.346-1.035,1.383,0.896,1.383s3.104,0.277,1.931-0.623
	c-1.172-0.899-1.862-0.483-2.069-1.382s-0.483-0.761-0.621-1.384c-0.138-0.623,0.483-0.899,0.276-1.521s-1.035-0.623-0.966-1.245
	c0.069-0.623,0.552-1.245,0.689-1.521c0.138-0.277,0.138-0.553-0.207-0.83c-0.345-0.277-0.276-0.346,0.207-0.485
	c0.483-0.138,0.552,0.069,0.759-0.623c0.207-0.69,0.828-0.622,1.104-0.83c0.276-0.207,1.242-0.483,0.897-1.383
	c-0.345-0.899-1.035-1.314-0.276-1.314c0.759,0,1.518-0.069,2-1.038c0.483-0.968,0.276-1.176,0.828-1.936
	c0.552-0.761,0.621-1.383,0.621-1.937c0-0.554-0.276-1.106,0.483-1.453c0.759-0.345,3.242-0.76,3.586-1.797
	c0.345-1.038,0.689-2.145,0.552-3.25c-0.138-1.106-0.207-1.798,0.552-2.697c0.758-0.899,1.724-1.66,1.724-2.49
	C58.9,53.355,59.245,52.179,58.003,51.834z M70.762,6.396c0.759-0.83,0.552-1.245,1.587-1.66c1.034-0.416,0.758-0.969,0.621-1.798
	c-0.138-0.83,0-0.484,0.414-0.761c0.414-0.277,1.035-0.484,2-0.553c0.965-0.069,0.069-0.415,0.069-0.83
	c0-0.415-0.689-0.346-1.656-0.208c-0.965,0.139-0.827,0-1.517-0.277c-0.689-0.276-4.759-0.276-5.793-0.276
	c-1.035,0-2.897,0.207-3.862,0.276c-0.966,0.07-0.896,0-2.759-0.207s-6.759-0.069-8.552,0.138c-1.793,0.208-3.104,0.416-4.277,1.176
	c-1.172,0.76-1.931,0.484-3.241,0.622c-1.311,0.138-1.448,0.138-2.069,0.138c-0.621,0-0.552-0.346-1.655,0.069
	c-1.104,0.415-0.759,0.692-1.172,0.138c-0.414-0.553-0.966,0-2.897,0.484c-1.931,0.484,0.69,1.038,1.311,1.245
	c0,0,1.311-0.069,2.069-0.277c0.759-0.208,1.103,0.277,1.586,0.138c0.483-0.138,0.621-0.623,3.379-1.245
	c2.759-0.622,4.69-0.138,5.793,0.346c1.104,0.484,1.104,0.207,2.069-0.415s2.621-1.106,4.345-1.383
	c1.724-0.277,0.621,0.346-0.483,0.76c-1.104,0.415-2.069,0.277-1.862,0.968c0.207,0.692,2.345,0.484,2.966,0.484
	s0.69,0.968,0.758,1.522c0.069,0.553-0.068,0.83,0.069,1.383c0.138,0.553,0.483,0.484-0.138,1.037
	c-0.621,0.554-0.966,0.484-0.966,1.453c0,0.968,0.414,2.005,1.38,2.697c0.965,0.692,1.517,0.761,2.069-0.345
	C60.9,10.131,62.21,9.439,62.9,9.093c0.69-0.346,1.655,0,2.552-0.83c0.896-0.83,2.069-0.484,3.379-0.899
	C70.142,6.949,70.004,7.226,70.762,6.396z M72.142,7.987c-2.069,0.276-4-0.416-3.655,0.691c0.345,1.107,0.414,2.766,1.517,2.421
	c1.895-0.594,4-0.899,3.518-1.799C73.039,8.402,74.211,7.71,72.142,7.987z M85.312,3.301c0.074,0.021,0.147,0.028,0.21,0.052
	c0.69,0.277,1.172-0.138,1.242-0.692c0.758-1.106,0.482,0.899,1.31,0.553c0.828-0.346,2-1.176,2.966-1.66
	c0.966-0.485-1.172-0.277-2.896-0.553c-1.724-0.276-4.138,0.208-4.828,0.691C82.672,2.144,84.304,3.015,85.312,3.301z M96.488,1.832
	c0,0-0.345,0.484,0.483,0.484s2.552-0.553,3.931-0.553s0.965-0.484,0.689-0.484c-0.275,0-1.035-0.76-2.138-0.692
	C98.35,0.656,98.419,1.14,97.73,1.14c-0.69,0-0.552-0.208-2-0.138C94.281,1.071,95.729,1.693,96.488,1.832z M144.146,55.429
	c1.104,0.138,1.931,0,2.69-0.415c0.758-0.415,0.414-0.899,0.345-1.107c-0.069-0.207-0.621,0.208-1.379,0.346
	c-0.759,0.139-0.966,0.139-1.932,0.208c-0.965,0.069-0.345-0.346-1.379-0.415c-1.034-0.069-2.069-0.276-3.241-0.691
	c-1.173-0.415-1.794-0.761-2.621-1.038c-0.828-0.277-0.069-0.761-0.138-1.936c-0.069-1.176-0.828-0.692-1.448-1.107
	s-0.414-1.314-0.138-1.038c0.276,0.277,0.345,0.623,0.345-0.83c0-1.452-1.311-2.42-2.138-3.665c-0.828-1.245-0.69-1.937-0.621-2.559
	c0.069-0.623,1.518,0.553,2.276,1.452c0.759,0.899,0.759,0.899,1.173,0.692c0.414-0.207,1.655-0.899,1.931-2.005
	c0.276-1.107-2.207-3.319-2.552-4.357c-0.345-1.037,0.483-0.415,0.897-1.106c0.414-0.691,0.896,0.277,0.62,0.761
	c-0.275,0.484,0.069,0.761,0.345,1.245c0.275,0.484,0.275,0,0.552-0.622c0.276-0.623,0.069-0.83,0.551-1.245
	c0.483-0.415,2.345-0.968,2.828-1.453c0.483-0.484,0.828-1.037,1.448-2.766c0.621-1.729-0.069-1.66-0.345-2.282
	s-1.104-1.66-1.586-2.283c-0.483-0.622-0.069-0.483,0.276-0.691c0.345-0.208,0.069-0.692-0.759-0.969
	c-0.828-0.276-0.689,0.277-1.448,0.139c-0.759-0.139-0.345-0.691,0.482-1.66c0.828-0.968,0.414,0.208,0.965,0.623
	c0.552,0.416,0.69-0.345,1.104-0.138c0.414,0.208,1.241,0.623,1.862,1.453c0.62,0.83,0.62,1.798,1.241,1.729
	c0.621-0.069,0.621-0.346,0.896-0.968c0.275-0.623-0.759-1.176-1.241-1.66c-0.483-0.484-0.965-0.484-0.552-0.899
	c0.414-0.415,0.069-1.037,0.276-1.521c0.208-0.485,0.966-0.208,1.724-0.554c0.759-0.346,0.828-1.521,0.828-2.766
	c0-1.245-0.62-1.798-0.965-2.213c-0.345-0.415,0.414-0.208,1.034,0.276c0.621,0.485,1.586,3.112,1.793,4.15s0.069,1.038,0.896,1.937
	c0.828,0.899,0.552,0.761,0.276,1.798c-0.276,1.037-0.966,1.314-2,1.591c-1.035,0.276-0.689,0.484-1.31,1.521
	c-0.621,1.037,0.344,1.106,0.896,1.383c0.552,0.277,0.828-0.76,1.517-1.245c0.689-0.484,1.449-0.83,2.621-0.83
	s-0.345-1.591-0.414-2.421c-0.069-0.83-0.138-1.383-0.414-2.005c-0.276-0.622,0.276-0.622,1.104-1.038
	c0.828-0.415,0.759-1.245,0.276-1.245c-0.483,0-0.897,0.346-2.001,0.276c-1.103-0.069-0.827-0.968-1.103-1.314
	s-0.621-1.106-0.69-1.729c-0.069-0.623-1.035-1.452-1.724-2.074c-0.69-0.623-1.104-1.037-1.104-0.761
	c0,0.276-0.414-0.069-1.379-0.139c-0.966-0.069-1.173,0.139-2,0.07c-0.828-0.07,0.069-1.453,0.414-2.42
	c0.345-0.969,1.311-0.416,2.069-0.416c0.758,0,1.103,0.07,2.207,0.346c1.104,0.277,0.621-0.691,0.828-1.452
	c0.207-0.761,0.69-0.346,1.311-0.069c0.621,0.276,0.828,0.345,0.828-0.277c0-0.622,0.552-0.761,1.035-0.208
	c0.482,0.554-0.828,1.729-0.828,1.729s-0.414,1.245,0.345,1.659c0.758,0.415,2.276,2.213,3.172,2.836
	c0.896,0.622,0.276-1.038,0.276-2.213c0-1.175-0.828-1.037-1.449-2.144c-0.62-1.107-0.206-0.622,0.966-0.622
	c1.172,0,1.242-0.415,1.517-0.761c0.276-0.346,0.483-0.415,1.518-0.415c1.035,0,0.414-0.415-0.069-0.968
	c-0.482-0.553-1.449-0.414-1.104-0.761c0.345-0.345,2.207,0.208,3.104,0.554c0.897,0.345,0.689,0.069,0.552-0.761
	s-0.896-0.208-3.104-1.038c-2.207-0.829-4.621-1.314-5.379-1.314c-0.759,0-0.208-0.484,0.345-0.484c0.551,0,0.414-0.484-0.138-0.761
	s-1.034-0.069-1.241,0.553c-0.207,0.623,0.621,0.692-0.966,0.692c-1.586,0-2.759,0-4.621-0.346
	c-1.863-0.346-2.552-0.346-4.139-0.415c-1.586-0.069-1.448-0.761-3.103-0.761c-1.656,0-1.104-0.623-1.793-1.383
	c-0.69-0.761-1.035-0.553-3.104-0.553c-2.069,0-0.966,0.83-0.552,0.968c0.414,0.138,1.518,0.484,2.276,1.176
	c0.759,0.691-1.379,0.415-2.276,0.484c-0.896,0.069-0.827-0.484-1.862-1.107c-1.035-0.622-3.586-0.277-5.035-0.346
	c-1.449-0.069-1.518,0-2.069-1.037C120.972,2.247,119.8,2.8,118.282,2.8c-1.517,0-2.345-0.761-3.104-1.244
	c-0.758-0.485-1.931-0.553-3.586-0.83c-1.655-0.277-0.758,1.037-0.138,1.106c0,0,0.69,0.277,1.379,0.346
	c0.69,0.069,2.138,0.139,2.897,1.038c0.758,0.899-2.346,0.553-3.725,1.314c-1.379,0.761-2.483,0.415-3.448,0.83
	c-0.966,0.415,0.482,1.107,0.827,2.006c0.345,0.899,0,0.899-0.62,1.107c-0.621,0.207,0.207-0.969-0.069-1.314
	c-0.275-0.346-1.311-2.144-2.138-2.698c-0.828-0.553-0.689,0.484-0.551,1.245c0.137,0.761,0.345,0.761,0.551,1.314
	c0.207,0.553-0.896,0-1.448-0.415s-2.345,0.553-3.172,0.138c-0.828-0.415,0.275-0.276,0.275-0.692c0-0.415-0.965-0.069-1.241-0.691
	c-0.276-0.622,1.724-1.383,2.966-1.591c1.241-0.208,1.104-0.208,1.104-0.83c0-0.622-2.207-0.415-4.069,0.484
	s-1.379,1.521-1.655,2.144c-0.276,0.622,0.621,0.691,1.034,1.037c0.414,0.346-0.482,0.484-1.31,0.761s-1.035,0-2,0.346
	c-0.966,0.346-0.414,0.761-1.242,1.106c-0.828,0.345-0.758,0.345-1.448,0.622c-0.689,0.277,0.138-1.037,1.104-1.176
	c0.966-0.138,0.69-0.692,0.414-0.899c-0.276-0.207-2.069-0.761-4-1.314c-1.931-0.553-5.035,0.208-6.069,0.692
	c-1.035,0.484-0.966,0.83-1.104,1.522c-0.138,0.692-2.483,1.729-3.655,2.351c-1.172,0.623-0.138,1.453,0.207,2.006
	c0.345,0.553,1.103,0.277,2.069,0c0.965-0.277,0.828,0.899,0.965,1.314c0.138,0.415,0.69,0.484,1.587,0.069
	c0.896-0.415,0.689-1.383,0.689-1.936s-0.207-0.83,0.414-1.591c0.621-0.761,1.173-1.245,1.725-1.591
	c0.552-0.346,0.483,0.276-0.345,0.968c-0.828,0.692-0.276,0.899,0.138,1.729c0.414,0.83,1.241,0,2.276-0.138
	s-0.896,0.899-1.655,0.899s0,0.83-0.483,0.83c-0.482,0-0.552,0.346-0.621,1.176s-0.345,0.623-0.896,0.83
	c-0.552,0.207-1.379,0.276-2.276,0.069c-0.896-0.207-0.827-1.037-1.448-1.59c-0.621-0.554-0.759,0.276-0.759,0.622
	c0,0.346-0.621,1.107-0.896,1.107c-0.276,0-1.104,0.83-1.586,1.521c-0.483,0.691-0.828,0.277-0.966,0
	c-0.138-0.277,0.345-0.691,0.069-1.383c-0.276-0.692-1.38-1.245-1.035-2.835c0.345-1.591-0.414-0.761-1.518-0.622
	c-1.104,0.138-1.448,0.622-1.517,1.037c-0.069,0.415-0.69,1.245-1.38,2.006c-0.689,0.76-0.207,1.383,0.138,2.213
	c0.345,0.83,1.242-0.276,1.518-0.968c0.276-0.692,0.621-1.037,1.034-0.692c0.414,0.346-0.621,0.968-0.758,1.798
	c-0.138,0.83,0.276,0.761,1.242,0.484c0.965-0.277,0.482-0.484,1.241-0.138c0.758,0.346-0.69,0.622-1.586,0.692
	c-0.896,0.069-0.552,0.691,0.207,1.244c0.758,0.553,0.414,1.383-0.069,1.453c-0.483,0.069-1.379,0.207-2.759,0.484
	s-0.138,1.383-0.414,2.006c-0.276,0.623-0.345,2.005,0.276,2.075c0.621,0.069,0.621,1.106,0.276,1.452
	c-0.345,0.346-0.414,0.692-1.241,1.314c-0.828,0.623-0.207,1.176-0.483,2.005c-0.276,0.83-0.965,0.346-1.793,1.245
	c-0.828,0.899-1.172,1.591-1.793,2.628c-0.621,1.038-0.69,1.106,0.069,2.352s0,1.591-0.621,2.697
	c-0.621,1.107,0.207,1.176,0.482,2.145c0.276,0.968,0.828,0.76,1.035,1.729c0.207,0.968,0.483,1.245,1.449,1.937
	c0.965,0.692,1.931,1.66,2.414,1.453c0.483-0.208,1.242-0.761,2.828-0.692c1.586,0.069,1.035-0.692,2.69-0.968
	s0.759,0.208,0.966,0.691c0.207,0.485,1.104,0.969,2.345,1.038c1.242,0.069,0.207,1.59,0.138,2.559
	c-0.069,0.968,0,0.968,0.621,1.798c0.621,0.83,1.448,2.697,1.655,3.665c0.207,0.969-0.207,2.075-0.759,2.975
	c-0.552,0.898-0.345,2.974,0.828,4.495c1.172,1.521,0.482,1.452,0.482,3.042c0,1.59,0.828,1.314,1.449,2.213
	c0.621,0.899,0.345,2.559,0.897,3.458c0.551,0.899,1.517,0.069,2.621-0.346c1.104-0.415,1.586-0.276,2.896-1.245
	c1.311-0.968,2.345-2.904,2.345-3.458s0.414-0.761,1.103-1.037c0.69-0.276,0.552-2.075,0.483-2.559
	c-0.069-0.485,0.138-0.899,0.414-1.176c0.276-0.276,2-1.936,2.621-2.628c0.621-0.691,0.068-1.66-0.069-2.766
	s-0.552-1.521-0.552-2.835c0-1.314-0.414-1.176,1.862-3.32s4.414-5.533,4.621-6.293c0.208-0.761,0.138-1.383,0-1.936
	c-0.137-0.554-3.104,0.553-3.793,0.553c-0.69,0-1.931-1.522-2.069-2.075c-0.138-0.554-1.173-1.106-2.069-1.937
	s-0.207-2.006-0.896-2.905c-0.69-0.899-1.035-2.213-1.172-2.974c-0.138-0.76,1.034,0.554,1.931,1.591
	c0.896,1.038,2.069,2.974,2.414,3.666c0.345,0.692,0.621,1.729,0.69,2.559c0.069,0.83,0.621,0.968,1.448,0.899
	c0.828-0.069,3.725-1.591,4.759-2.075c1.035-0.484,2.276-1.937,2.759-3.319c0.483-1.383-1.035-1.176-1.724-1.868
	c-0.69-0.692-0.69,0-1.518,0.208c-0.828,0.207-1.518-0.899-2.828-2.144c-1.311-1.246-0.482-0.83-0.207-1.107
	c0.275-0.277,1.586,0.623,2.345,1.521s0.896,0.553,1.793,0.553c0.896,0,1.103,0.415,2.276,0.761
	c1.172,0.346,1.793-0.138,2.795-0.031c1.003,0.106,0.86,0.584,1.55,1.691c0.689,1.106,0.414,0.761,1.931,0.898
	c1.518,0.139,0.414,0,0.414,0.968s0.138,1.314,1.035,2.49c0.896,1.176,1.241,3.389,1.517,4.496c0.276,1.106,0.828,0,1.724,0
	s0.069,0.761,0.759,1.867c0.69,1.107,1.172-0.346,1.172-0.761c0-0.415-0.414-1.452-0.828-1.798c-0.414-0.346-0.965-0.277-0.483-0.83
	c0.483-0.554,0.069-1.106,0.069-1.868c0-0.761,0.069-1.313,0.414-1.659c0.345-0.346,1.586-1.591,2.345-2.49
	c0.759-0.898,1.38-1.037,2.414-0.968c1.035,0.07,0.207,0.208,0.828,1.038c0.621,0.83,0.759,2.006,1.448,2.835
	c0.69,0.83,0.759-0.138,1.311-0.415c0.552-0.277,0.207,0.83,0.621,1.659c0.414,0.831,0.138,1.937,0.138,2.698
	c0,0.76,0.896,1.521,1.448,2.212c0.552,0.692,0.345,1.038,0,1.314c-0.345,0.277-1.034-0.691-1.586-1.245
	c-0.552-0.554-1.379-0.208-0.828,0.415c0.552,0.623,0.897,1.729,1.518,2.905c0.621,1.175,1.931,2.559,2.828,3.803
	c0.896,1.245,3.793,1.798,4.896,1.798S143.043,55.291,144.146,55.429z M96.281,28.596c-0.414,0.83-0.621,1.383-1.241,1.175
	c-0.621-0.208-2.69-0.138-3.725-0.483c-1.034-0.346-2.552-0.968-2.828-0.208c-0.276,0.76,0.69,1.383-1.035,0.76
	c-1.724-0.622-3.586-1.383-3.793-1.937c-0.207-0.553,0.69-2.075-0.552-2.075c-1.241,0-2.965-0.069-3.517,0.346
	c-0.552,0.415-2.69,1.175-3.379,0.968c-0.627-0.188-1.587-0.415-0.483-0.899c1.104-0.484,2.414-0.208,2.552-0.899
	c0.138-0.692-0.965-0.83,0.138-1.453c1.104-0.622,0.69-1.175,1.449-1.521c0.759-0.345,1.793-0.276,2.345-0.484
	s-0.207-0.415,0.896,0.208c1.104,0.623,1.793,1.798,2.345,1.867c0.552,0.069,0.897,0.484,0.552,0.761
	c-0.345,0.277-0.897,0.484-1.104,0.484c-0.207,0-0.345,0.553-0.138,0.622c0.207,0.07,0.689,0.969,1.035,0.692
	c0.344-0.277,0-0.692,0.621-0.899c0.62-0.208,1.241-0.484,0.965-0.899c-0.276-0.415-0.552-0.899,0-0.623s1.035,0.139,0.414-0.484
	c-0.621-0.623-0.828-0.623-1.586-1.175c-0.759-0.554-1.586-0.83-1.586-1.245s-0.483-1.176,0.276-0.899
	c0.759,0.277,3.379,1.729,3.379,2.283s0.69,1.521,0.069,2.005c-0.621,0.484,0.621,0.623,0.897,0.899
	c0.275,0.277,0.138,1.038,0.896,0.899c0.759-0.138,1.311-0.069,0.896-0.83c-0.414-0.761-1.104-1.106-0.414-1.383
	c0.689-0.277,0.828-0.622,1.035,0.553c0.207,1.176-0.069,1.59,1.586,1.66s2.759-0.415,2.966,0.069S96.695,27.766,96.281,28.596z
	 M98.971,23.409c-1.104-0.069-2.965-0.415-3.862-0.415s-1.242,0.139-1.242,0.139c-0.759-0.139-2.552,0.346-1.655-0.831
	c0.896-1.175,0.345-2.697,1.449-2.282c1.103,0.415,1.172,2.006,1.862,1.038c0.69-0.969,1.449-2.075,1.655-1.314
	c0.207,0.761-0.965,1.383,0.483,2.006C99.109,22.371,100.075,23.478,98.971,23.409z M105.592,25.968
	c-1.035,0-2.276-0.208-2.276-0.761c0-0.554,0-1.314,0-1.314c-0.552-1.313-1.242-1.591-1.242-2.49s0.552-1.66,1.655-1.66
	s1.655-0.138,0.828,0.83s-1.586,1.038-0.483,2.559C105.178,24.654,106.626,25.968,105.592,25.968z M143.045,35.308
	c0.543,0.155,0.698-2.098-0.31-1.787C141.729,33.832,142.409,35.126,143.045,35.308z M144.441,41.914
	c0.464,0.312,0.542,0.855,0.464,1.71c-0.078,0.854-0.853,0.777,0.465,1.321c1.317,0.544,2.868,1.477,2.48-0.233
	s-0.078-1.943-1.472-3.264c-1.396-1.321-1.472-0.466-1.628-1.554c-0.155-1.088-0.543-3.109-1.085-2.332
	c-0.478,0.686-0.852,0.932-0.31,2.098C143.898,40.826,143.976,41.603,144.441,41.914z M141.496,44.634
	c-0.469,0.604-1.396,1.943-2.015,2.409c-0.62,0.466-1.705-0.155-1.627,0.933s0.155,1.554,0.232,2.332
	c0.078,0.777,0.233,1.243,1.396,1.243c1.163,0,1.705,0.389,2.093,0.233c0.387-0.156,0.31-0.855,0.774-1.788
	c0.465-0.933,1.241-0.699,0.93-1.399c-0.311-0.699-0.311-0.544-0.311-1.243c0-0.7,0.388-0.233,0.155-1.399
	C142.891,44.789,142.039,43.935,141.496,44.634z M157.849,51.862c-1.008-1.088-2.712-1.865-3.411-1.788
	c-0.697,0.078-1.317,1.166-1.705,0.777c-0.388-0.389-1.55-2.253-2.17-1.71c-0.62,0.544,0.078,1.166-0.697,1.166
	s-1.008,0.933-1.163-0.311c-0.154-1.244-0.775-1.865-0.93-0.933s-0.232,1.554-0.62,0.855c-0.388-0.7-0.621-0.233-0.621-0.933
	s-1.549-1.477-2.169-0.699c-0.388,0.485-0.542,0.543-0.697,1.632c-0.155,1.088-0.543,2.798,0.309,2.332
	c0.853-0.466,1.008-0.078,1.396-0.622s0.853-0.854,1.55-0.544c0.698,0.311,0.388,0.311,1.628,0.156
	c1.24-0.156,1.859-0.156,2.712,0.388s2.558,0.233,2.558,0.777s-1.782,0.933,0,1.477c1.783,0.544,2.17,1.788,2.712,1.166
	c0.542-0.622,1.318-1.477,1.86-0.855c0.542,0.622,2.635,2.332,2.248,1.398c-0.388-0.933-0.311-1.788,0.931-2.797
	c1.239-1.01,0.929-1.477,0.386-1.477c-0.542,0-0.542,0.7-1.782,0.854C158.934,52.328,158.857,52.949,157.849,51.862z
	 M158.392,61.886c-0.697-1.788-0.697-3.186-1.085-3.963c-0.387-0.777-0.078-1.709-1.24-1.709c-0.472,0-0.465,0.311-0.853,1.321
	c-0.387,1.01,0.078,2.875-0.93,2.643c-1.008-0.233-1.473-0.699-1.706-1.71c-0.232-1.01,0.311-1.943-0.464-1.943
	c-0.775,0-2.945-0.544-3.488,0.311c-0.543,0.855,0.154,1.166-1.008,1.166s-1.628,0-2.248,0.777c-0.62,0.778-1.473,2.954-4.805,3.109
	c-3.333,0.156-1.627,1.943-1.627,3.886c0,1.943-1.783,3.109-1.007,3.808c0.775,0.699-0.233,1.632,1.395,1.088s3.101-0.7,5.658-1.088
	c2.558-0.389,3.72-0.544,3.797,0.699s-0.31,0.389,0.698,0.622c1.008,0.233-0.077,1.865,1.085,2.021
	c1.162,0.155,0.465,1.01,1.473,1.01s1.395,1.088,0.542,1.088s-2.092,1.787-0.853,1.167c1.24-0.622,2.48-0.777,2.48-1.71
	c0-0.933-0.155-1.01,1.317-2.176c1.473-1.166,4.883-3.964,4.65-6.217C159.941,63.83,159.09,63.674,158.392,61.886z M168.543,71.212
	c-0.619-0.311-0.619,0.234-1.007,1.399c-0.387,1.166-2.324,1.632-2.635,1.865c-0.31,0.233-0.93,0.933-0.93,0.933
	c-1.472,0.932-4.339,1.865-3.643,2.643c0.698,0.777,1.163,0.311,2.868-0.544c1.705-0.855,2.17-1.943,3.101-2.564
	s1.472-0.543,2.17-1.321C169.165,72.844,169.164,71.523,168.543,71.212z"/>
</svg>
