<?xml version="1.0" encoding="iso-8859-1"?>
<!DOCTYPE svg>
<svg version="1.1" xmlns="http://www.w3.org/2000/svg" xmlns:xlink="http://www.w3.org/1999/xlink" x="0px" y="0px"
	 width="87.697px" height="35.156px" viewBox="0 0 87.697 35.156" style="enable-background:new 0 0 87.697 35.156;"
	 xml:space="preserve">
<path style="fill:#000;" d="M11.339,7.761C0.374,7.759-0.052,16.294,0.004,18.51c0,0-0.537,9.979,11.067,9.979
	c9.971,0,10.462-6.261,10.462-6.261l-4.587,0.009c0,0-0.894,3.449-5.855,3.357c-6.379-0.119-6.627-6.298-6.627-6.298h17.672
	C22.135,19.295,23.477,7.764,11.339,7.761z M4.61,16.269c0,0,0.314-5.588,6.621-5.59c6.284-0.002,6.284,5.59,6.284,5.59H4.61z"/>
<path style="fill:#000;" d="M34.41,7.761c-5.513-0.031-7.885,3.265-7.885,3.265V0h-4.42l0.075,23.303c0,0-0.027,2.714-0.194,4.508
	h4.293l0.185-2.618c0,0,2.002,3.295,7.854,3.295c5.853,0,10.474-3.604,10.597-10.287C45.036,11.519,39.924,7.792,34.41,7.761z
	 M33.397,25.509c-6.962,0.087-6.849-7.384-6.849-7.384s-0.254-7.191,6.838-7.376s6.861,7.53,6.861,7.53S40.36,25.421,33.397,25.509z
	"/>
<path style="fill:#000;" d="M65.335,23.21c0.011-3.014,0.099-5.706,0-7.604c-0.116-2.202,0.092-7.514-9.426-7.907
	c0,0-9.125-0.832-10.073,5.959h4.667c0,0,0.362-3.111,5.098-3.021c4.481,0.084,5.298,2.282,5.275,4.985c0,0-3.841,0.011-5.123,0.017
	c-2.31,0.012-10.395,0.268-11.149,5.191c-0.897,5.854,4.328,7.681,8.417,7.658c4.089-0.023,6.422-1.247,8.155-3.441l0.185,2.725
	l4.066-0.023C65.428,27.749,65.323,26.225,65.335,23.21z M53.784,25.67c0,0-4.43,0.005-4.69-3.534
	c-0.277-3.777,6.815-3.55,6.815-3.55l5.011-0.005C60.92,18.582,61.731,25.774,53.784,25.67z"/>
<path style="fill:#000;" d="M62.917,8.5h5.128l7.5,14.953L83.062,8.5h4.635L74.128,35.156H69.17l3.927-7.407L62.917,8.5z"/>
</svg>
