<?xml version="1.0" encoding="iso-8859-1"?>
<!DOCTYPE svg>
<svg version="1.1" xmlns="http://www.w3.org/2000/svg" xmlns:xlink="http://www.w3.org/1999/xlink" x="0px" y="0px"
	 width="43.614px" height="46.758px" viewBox="0 0 43.614 46.758" style="enable-background:new 0 0 43.614 46.758;"
	 xml:space="preserve">
<path style="fill:#000;" d="M20.491,0v46.644h23.123V0H20.491z M26.329,43.353h-3.091v-3.176h3.091V43.353z M26.329,38.729
	h-3.091v-3.177h3.091V38.729z M26.329,34.103h-3.091v-3.176h3.091V34.103z M26.329,29.48h-3.091v-3.179h3.091V29.48z M26.329,24.854
	h-3.091v-3.177h3.091V24.854z M26.329,20.23h-3.091v-3.178h3.091V20.23z M26.329,15.604h-3.091v-3.178h3.091V15.604z M26.329,10.979
	h-3.091V7.802h3.091V10.979z M26.329,6.354h-3.091V3.177h3.091V6.354z M31.134,38.729h-3.088v-3.177h3.088V38.729z M31.134,34.103
	h-3.088v-3.176h3.088V34.103z M31.134,29.48h-3.088v-3.179h3.088V29.48z M31.134,24.854h-3.088v-3.177h3.088V24.854z M31.134,20.23
	h-3.088v-3.178h3.088V20.23z M31.134,15.604h-3.088v-3.178h3.088V15.604z M31.134,10.979h-3.088V7.802h3.088V10.979z M31.134,6.354
	h-3.088V3.177h3.088V6.354z M35.944,38.729h-3.09v-3.177h3.09V38.729z M35.944,34.103h-3.09v-3.176h3.09V34.103z M35.944,29.48
	h-3.09v-3.179h3.09V29.48z M35.944,24.854h-3.09v-3.177h3.09V24.854z M35.944,20.23h-3.09v-3.178h3.09V20.23z M35.944,15.604h-3.09
	v-3.178h3.09V15.604z M35.944,10.979h-3.09V7.802h3.09V10.979z M35.944,6.354h-3.09V3.177h3.09V6.354z M40.752,43.353h-3.091v-3.176
	h3.091V43.353z M40.752,38.729h-3.091v-3.177h3.091V38.729z M40.752,34.103h-3.091v-3.176h3.091V34.103z M40.752,29.48h-3.091
	v-3.179h3.091V29.48z M40.752,24.854h-3.091v-3.177h3.091V24.854z M40.752,20.23h-3.091v-3.178h3.091V20.23z M40.752,15.604h-3.091
	v-3.178h3.091V15.604z M40.752,10.979h-3.091V7.802h3.091V10.979z M40.752,6.354h-3.091V3.177h3.091V6.354z M0,46.758h18.43V17.25H0
	V46.758z M12.25,20.086h3.319v4.994H12.25V20.086z M12.25,26.367h3.319v4.992H12.25V26.367z M12.25,32.646h3.319v4.993H12.25V32.646
	z M12.25,38.925h3.319v4.994H12.25V38.925z M7.498,20.086h3.321v4.994H7.498V20.086z M7.498,26.367h3.321v4.992H7.498V26.367z
	 M7.498,32.646h3.321v4.993H7.498V32.646z M2.749,20.086h3.319v4.994H2.749V20.086z M2.749,26.367h3.319v4.992H2.749V26.367z
	 M2.749,32.646h3.319v4.993H2.749V32.646z M2.749,38.925h3.319v4.994H2.749V38.925z"/>
</svg>
