<?xml version="1.0" encoding="iso-8859-1"?>
<!DOCTYPE svg>
<svg version="1.1" xmlns="http://www.w3.org/2000/svg" xmlns:xlink="http://www.w3.org/1999/xlink" x="0px" y="0px"
	 width="116.422px" height="37.02px" viewBox="0 0 116.422 37.02" style="enable-background:new 0 0 116.422 37.02;"
	 xml:space="preserve">
<g>
	<path style="fill:#010202;" d="M70.686,17.244c-1.148,0-2.186,0.677-2.849,1.662l-0.332,1.532
		c-0.332,1.706,0.597,3.126,2.431,3.126c1.963,0,3.045-1.88,3.045-3.806C72.98,18.207,71.988,17.244,70.686,17.244z"/>
	<path style="fill:#010202;" d="M37.283,16.872c-1.634,0-2.98,1.115-3.62,2.581c0.574,0.043,1.081,0.064,1.544,0.064
		c3.003,0,3.841-0.678,3.841-1.51C39.049,17.441,38.453,16.872,37.283,16.872z"/>
	<path style="fill:#010202;" d="M107.217,16.872c-1.634,0-2.98,1.115-3.619,2.581c0.572,0.043,1.08,0.064,1.543,0.064
		c3.002,0,3.84-0.678,3.84-1.51C108.98,17.441,108.387,16.872,107.217,16.872z"/>
	<path style="fill:#010202;" d="M112.049,4.576L4.339,0.004L4.199,0C1.844,0,0,2.358,0,5.368v26.285
		c0,3.008,1.846,5.366,4.199,5.366l0.138-0.002l107.713-4.573c2.412-0.1,4.373-2.033,4.373-4.313V8.889
		C116.422,6.607,114.461,4.671,112.049,4.576z M16.397,16.548c0.838,0,1.28,0.352,1.28,0.896c0,0.329-0.154,1.05-0.486,1.399
		c-0.221,0.22-0.508,0.352-1.17,0.352h-5.034l-0.779,3.735h6.446c0.906,0,1.368,0.351,1.368,0.939c0,0.373-0.177,1.137-0.529,1.509
		c-0.243,0.241-0.553,0.351-1.259,0.351H8.442c-1.346,0-1.942-0.681-1.634-2.057L9.297,11.96c0.243-1.137,0.949-1.662,2.031-1.662
		h7.881c0.905,0,1.39,0.351,1.39,0.962c0,0.351-0.198,1.137-0.553,1.487c-0.242,0.263-0.529,0.352-1.258,0.352h-6.467l-0.759,3.449
		H16.397z M29.887,17.987L25.34,24.92c-0.508,0.788-1.347,0.918-1.943,0.918c-0.795,0-1.612-0.285-1.722-1.137l-0.882-6.08
		c-0.221-1.662-0.729-2.1-1.612-2.166c-0.044,0,0.155-1.575,1.943-1.575c0.662,0,1.126,0.176,1.545,0.592
		c0.596,0.59,0.861,1.553,0.971,3.018l0.397,3.979l4.371-7.566c0.022-0.043,2.142,0.065,2.142,1.51
		C30.55,16.894,30.373,17.266,29.887,17.987z M35.473,21.422c-0.663,0-1.39-0.044-2.208-0.089v0.066
		c0,1.486,0.927,2.406,2.626,2.406c1.435,0,2.474-0.636,3.179-1.554c0.044-0.064,1.325,0.154,1.325,1.16
		c0,0.567-0.176,0.875-0.596,1.312c-0.817,0.788-2.097,1.268-3.951,1.268c-3.532,0-5.21-1.923-5.21-4.548
		c0-3.87,3.002-6.647,6.777-6.647c2.736,0,4.26,1.269,4.26,3.126C41.676,20.109,40.263,21.422,35.473,21.422z M53.597,24.679
		c0.045,0-0.175,1.268-1.876,1.268c-1.456,0-2.141-0.742-2.141-1.902c0-0.611,0.198-1.421,0.53-2.623
		c0.287-1.006,0.487-1.839,0.487-2.297c0-1.093-0.619-1.749-1.745-1.749c-1.082,0-1.788,0.502-2.472,1.552l-1.148,5.424
		c-0.243,1.094-0.64,1.466-1.435,1.466h-0.33c-0.84,0-1.59-0.328-1.347-1.466l1.964-9.185c0.022-0.065,0.375-0.197,0.861-0.197
		c0.883,0,1.744,0.481,1.722,1.902c0.861-1.29,2.119-2.077,3.708-2.077c2.208,0,3.488,1.421,3.488,3.455
		c0,0.767-0.265,1.814-0.641,3.128c-0.286,1.071-0.507,1.923-0.507,2.36C52.715,24.351,53.001,24.592,53.597,24.679z M62.186,17.463
		h-2.01l-0.949,4.374c-0.287,1.29,0.154,1.836,1.016,1.836c0.553,0,1.039-0.283,1.324-0.546c0.088-0.064,0.509,0.285,0.509,0.941
		c0,0.458-0.177,0.853-0.53,1.202c-0.484,0.48-1.259,0.744-2.296,0.744c-2.473,0-3.598-1.466-3.045-4.047l0.948-4.504h-0.529
		c-0.708,0-1.126-0.307-1.126-0.809c0-0.307,0.133-0.963,0.441-1.292c0.221-0.196,0.463-0.306,1.083-0.306h0.639l0.132-0.611
		c0.31-1.575,0.949-2.231,2.317-2.231c0.664,0,1.17,0.263,1.148,0.372l-0.529,2.472h1.81c0.75,0,1.171,0.329,1.171,0.81
		c0,0.306-0.134,0.984-0.465,1.29C63.045,17.354,62.781,17.463,62.186,17.463z M70.376,25.991c-1.59,0-2.981-0.765-3.644-2.077
		c-0.42,1.378-1.104,1.903-2.316,1.903c-0.596,0-1.105-0.263-1.083-0.373l2.905-13.636c0.242-1.116,0.641-1.487,1.436-1.487h0.354
		c0.815,0,1.588,0.349,1.324,1.487l-1.008,4.758c0.795-1.093,1.943-1.771,3.42-1.771c2.318,0,4.239,1.641,4.239,4.57
		C76.004,22.733,73.775,25.991,70.376,25.991z M84.785,18.25c-0.309-0.329-0.75-0.634-1.5-0.634c-1.391,0-2.273,1.53-2.76,3.783
		l-0.618,2.952c-0.242,1.094-0.64,1.466-1.435,1.466h-0.332c-0.839,0-1.588-0.328-1.347-1.466l1.966-9.185
		c0.021-0.065,0.375-0.197,0.86-0.197c0.884,0,1.744,0.481,1.723,1.882c0.661-1.29,1.654-2.057,2.913-2.057
		c1.082,0,1.921,0.612,1.921,1.508C86.177,17.812,84.831,18.293,84.785,18.25z M90.857,16.457l-1.435,6.626
		c-0.245,1.182-0.046,1.641,0.86,1.771c0.021,0.021-0.155,1.093-1.811,1.093c-2.009,0-2.517-1.225-2.143-2.951l1.414-6.54
		c0.244-1.116,0.64-1.487,1.434-1.487h0.332C90.35,14.969,91.1,15.297,90.857,16.457z M90.318,13.426
		c-1.104,0-1.721-0.547-1.721-1.334c0-1.05,0.728-1.793,1.811-1.793c1.104,0,1.721,0.548,1.721,1.334
		C92.128,12.66,91.4,13.426,90.318,13.426z M99.068,17.463h-2.01l-0.949,4.374c-0.287,1.29,0.156,1.836,1.017,1.836
		c0.552,0,1.039-0.283,1.324-0.546c0.088-0.064,0.509,0.285,0.509,0.941c0,0.458-0.178,0.853-0.532,1.202
		c-0.483,0.48-1.257,0.744-2.294,0.744c-2.472,0-3.599-1.466-3.047-4.047l0.949-4.504h-0.529c-0.707,0-1.125-0.307-1.125-0.809
		c0-0.307,0.131-0.963,0.441-1.292c0.22-0.196,0.462-0.306,1.08-0.306h0.641l0.134-0.611c0.31-1.575,0.947-2.231,2.317-2.231
		c0.663,0,1.171,0.263,1.148,0.372l-0.529,2.472h1.809c0.751,0,1.171,0.329,1.171,0.81c0,0.306-0.132,0.984-0.464,1.29
		C99.93,17.354,99.666,17.463,99.068,17.463z M105.404,21.422c-0.661,0-1.389-0.044-2.206-0.089v0.066
		c0,1.486,0.925,2.406,2.625,2.406c1.435,0,2.474-0.636,3.179-1.554c0.046-0.064,1.326,0.154,1.326,1.16
		c0,0.567-0.176,0.875-0.596,1.312c-0.818,0.788-2.099,1.268-3.951,1.268c-3.534,0-5.211-1.923-5.211-4.548
		c0-3.87,3.004-6.647,6.777-6.647c2.737,0,4.262,1.269,4.262,3.126C111.609,20.109,110.195,21.422,105.404,21.422z"/>
</g>
</svg>
