<?xml version="1.0" encoding="iso-8859-1"?>
<!DOCTYPE svg>
<svg version="1.1" xmlns="http://www.w3.org/2000/svg" xmlns:xlink="http://www.w3.org/1999/xlink" x="0px" y="0px"
	 width="120.006px" height="47.725px" viewBox="0 0 120.006 47.725" style="enable-background:new 0 0 120.006 47.725;"
	 xml:space="preserve">
<g>
	<path style="fill:#000;" d="M93.138,28.301c-0.384-0.251-0.854-0.3-1.303-0.263c-0.385,0.027-0.758,0.188-1.04,0.451
		c-0.991,0.866-0.825,2.722,0.354,3.345c0.627,0.313,1.433,0.296,2.025-0.09C94.327,30.994,94.31,29.022,93.138,28.301z"/>
	<path style="fill:#000;" d="M65.966,24.269c-0.716-0.481-1.854-0.422-2.389,0.306c-0.391,0.578-0.529,1.319-0.4,2
		c0.094,0.377,0.446,0.592,0.797,0.694c0.715,0.095,1.438-0.14,2.004-0.578c0.098-0.648,0.239-1.29,0.33-1.939
		C66.356,24.527,66.103,24.402,65.966,24.269z"/>
	<path style="fill:#000;" d="M45.85,20.995c-0.738-0.276-1.62-0.042-2.186,0.483c-0.286,1.532-0.546,3.068-0.815,4.604
		c0.537,0.599,1.451,0.806,2.187,0.478c0.612-0.297,0.974-0.923,1.202-1.539c0.311-0.907,0.507-1.873,0.414-2.834
		C46.605,21.693,46.333,21.182,45.85,20.995z"/>
	<path style="fill:#000;" d="M119.765,44.059c-5.207-13.297-10.42-26.592-15.627-39.89c-0.637-1.851-2.27-3.234-4.088-3.861
		c-0.938-0.339-1.947-0.321-2.929-0.296c-0.292-0.011-0.583-0.01-0.874,0.001c-3.4-0.018-6.801-0.004-10.202-0.008
		c-10.851,0.004-21.7-0.009-32.549,0.007c-16.453-0.017-32.906,0-49.359-0.008C3.152,0.013,2.164,0.348,1.42,1.002
		C0.53,1.765-0.018,2.926,0,4.103c0,13.189,0,26.379,0,39.568c-0.01,1.268,0.633,2.515,1.654,3.26
		c0.709,0.529,1.596,0.818,2.482,0.791c37.699-0.001,75.399,0.001,113.097-0.003c0.896,0.021,1.859-0.315,2.377-1.084
		C120.131,45.882,120.088,44.881,119.765,44.059z M70.306,27.629c0.389-2.229,0.791-4.456,1.174-6.687
		c0.082-0.396-0.019-0.795-0.027-1.192c0.07-0.468,0.549-0.663,0.932-0.828c0.645-0.254,1.303-0.486,1.98-0.639
		c0.144-0.054,0.287,0.053,0.35,0.18c0.102,0.49-0.113,0.97-0.099,1.46c0.446-0.774,1.157-1.512,2.081-1.641
		c0.566-0.082,1.107,0.365,1.248,0.897c0.098,0.424-0.168,0.796-0.377,1.137c-0.262,0.396-0.512,0.847-0.967,1.053
		c-0.289-0.131-0.401-0.54-0.759-0.522c-0.512-0.04-0.858,0.422-1.1,0.809c-0.836,1.426-1.009,3.103-1.306,4.698
		c-0.119,0.678-0.228,1.356-0.367,2.029c-0.062,0.242-0.146,0.542-0.412,0.63c-0.743,0.121-1.508,0.136-2.249,0.013
		c-0.114-0.01-0.187-0.112-0.229-0.202C70.119,28.421,70.243,28.024,70.306,27.629z M66.853,20.92
		c-0.101-0.377-0.527-0.462-0.86-0.503c-1.229-0.104-2.454,0.251-3.536,0.815c-0.21,0.114-0.562,0.231-0.669-0.07
		c-0.153-0.459-0.034-0.96,0.069-1.417c0.121-0.467,0.604-0.651,1.002-0.826c1.134-0.43,2.35-0.632,3.56-0.647
		c0.994,0.058,2.081,0.093,2.908,0.719c0.612,0.52,0.589,1.411,0.524,2.14c-0.293,1.88-0.674,3.745-0.963,5.625
		c-0.063,0.416-0.098,0.839-0.007,1.255c0.058,0.26-0.008,0.619-0.302,0.699c-0.688,0.173-1.383,0.318-2.069,0.505
		c-0.429-0.053-0.573-0.494-0.579-0.87c-0.854,0.589-1.859,1.014-2.912,0.99c-0.832,0.013-1.727-0.229-2.291-0.877
		c-0.652-0.71-0.773-1.755-0.604-2.671c0.148-1.015,0.602-2.008,1.381-2.689c1.021-0.938,2.527-1.224,3.86-0.941
		c0.46,0.109,0.911,0.294,1.284,0.591C66.78,22.15,66.944,21.534,66.853,20.92z M50.141,28.107
		c0.695-3.979,1.407-7.956,2.101-11.938c0.093-0.485-0.006-0.979,0.033-1.47c0.042-0.34,0.371-0.528,0.649-0.666
		c0.712-0.337,1.453-0.621,2.214-0.825c0.36-0.122,0.496,0.349,0.439,0.62c-0.465,2.812-0.997,5.611-1.465,8.42
		c0.89-0.935,1.775-1.875,2.668-2.808c0.31-0.304,0.561-0.694,0.96-0.89c0.613-0.162,1.254-0.086,1.882-0.117
		c0.383,0.01,0.795-0.075,1.146,0.124c0.004,0.214-0.092,0.403-0.246,0.549c-1.362,1.319-2.74,2.625-4.104,3.942
		c1.017,1.769,2.063,3.518,3.084,5.283c0.098,0.149,0.085,0.333,0.098,0.503c-0.367,0.244-0.821,0.251-1.245,0.283
		c-0.656,0.004-1.32,0.031-1.967-0.102c-0.263-0.128-0.374-0.424-0.51-0.663c-0.697-1.398-1.429-2.779-2.106-4.188
		c-0.26,1.361-0.483,2.729-0.732,4.092c-0.069,0.268-0.124,0.604-0.385,0.75c-0.515,0.146-1.056,0.111-1.584,0.112
		c-0.292-0.016-0.606-0.011-0.871-0.146C49.988,28.732,50.114,28.391,50.141,28.107z M38.441,13.525
		c0.413-0.088,0.891-0.047,1.215,0.25c0.321,0.271,0.477,0.701,0.467,1.115c-0.017,0.759-0.397,1.524-1.055,1.922
		c-0.458,0.285-1.072,0.361-1.552,0.087c-0.381-0.205-0.593-0.633-0.638-1.05C36.814,14.852,37.427,13.767,38.441,13.525z
		 M32.389,15.091c-0.056-0.338,0.063-0.724,0.378-0.896c0.767-0.441,1.617-0.707,2.454-0.984c0.106-0.004,0.212-0.008,0.318-0.012
		c0.239,0.297,0.156,0.697,0.111,1.044c-0.764,4.329-1.527,8.659-2.289,12.988c-0.09,0.429-0.131,0.868-0.25,1.29
		c-0.061,0.201-0.167,0.422-0.382,0.491c-0.783,0.146-1.589,0.116-2.374-0.003c-0.164-0.238-0.14-0.537-0.097-0.809
		c0.676-3.813,1.342-7.631,2.021-11.445C32.362,16.206,32.484,15.648,32.389,15.091z M12.472,25.901
		c-0.99-1.762-2.017-3.504-2.99-5.275c-0.47-0.896,0.17-2.14,1.202-2.19c3.421-0.047,6.844-0.003,10.266-0.021
		c0.2,0.006,0.409-0.02,0.602,0.047c0.197,0.29,0.231,0.662,0.296,0.999c0.029,0.214-0.229,0.297-0.399,0.3
		c-2.791,0.004-5.584-0.02-8.375,0.003c-0.353-0.01-0.776-0.076-1.049,0.203c-0.264,0.228-0.254,0.644-0.082,0.922
		c0.507,0.889,1.01,1.778,1.521,2.667c0.273,0.472,0.82,0.733,1.355,0.719c2.334,0.002,4.668-0.002,7.002,0.001
		c0.29-0.021,0.614,0.136,0.689,0.438c0.122,0.451,0.241,0.905,0.325,1.365c0.091,0.37-0.25,0.71-0.611,0.698
		c-2.791,0.003-5.583,0.002-8.376,0C13.269,26.774,12.729,26.415,12.472,25.901z M18.529,34.555
		c-0.901-0.035-1.675-0.871-1.626-1.775c0.005-0.708,0.496-1.375,1.165-1.599c1.05-0.406,2.322,0.467,2.292,1.597
		C20.428,33.762,19.503,34.641,18.529,34.555z M24.74,34.505c-0.982,0.281-2.106-0.5-2.132-1.535
		c-0.102-0.818,0.481-1.636,1.279-1.824c0.927-0.272,1.971,0.392,2.139,1.337C26.224,33.36,25.615,34.311,24.74,34.505z
		 M26.523,28.453c-0.628,1.154-1.961,1.75-3.236,1.769c-1.78,0.008-3.562,0.006-5.342,0c-0.131,0.02-0.311-0.094-0.255-0.243
		c0.105-0.556,0.253-1.104,0.376-1.655c0.044-0.312,0.32-0.594,0.648-0.564c1.229-0.001,2.458-0.001,3.688,0.002
		c0.409,0.008,0.844-0.055,1.177-0.311c0.345-0.256,0.548-0.658,0.608-1.077c0.342-1.905,0.684-3.809,1.021-5.716
		c-0.683-0.049-1.396,0.105-2.057-0.093c-0.16-0.559-0.295-1.124-0.415-1.69c-0.032-0.154-0.038-0.427,0.178-0.433
		c0.901-0.037,1.804,0.001,2.704-0.019c0.149-1.045,0.31-2.126,0.865-3.045c0.675-1.187,1.953-1.985,3.308-2.106
		c0.551-0.061,1.23-0.169,1.669,0.25c0.247,0.411,0.324,0.914,0.354,1.387c0.059,0.368-0.363,0.552-0.668,0.543
		c-0.596,0.004-1.268-0.002-1.729,0.441c-0.694,0.647-0.713,1.67-0.875,2.541c0.488,0.019,0.982-0.04,1.468,0.028
		c0.354,0.188,0.318,0.666,0.261,1.004c-0.077,0.461-0.235,1.065-0.769,1.17c-0.455,0.05-0.914,0.002-1.371,0.029
		c-0.282,1.708-0.601,3.409-0.892,5.116C27.058,26.684,27.007,27.643,26.523,28.453z M27.305,33.927
		c0.029-0.202,0.061-0.404,0.091-0.607c1.602,0.08,3.2,0.201,4.802,0.243C30.573,33.743,28.938,33.827,27.305,33.927z
		 M27.481,32.481c0.012-0.207,0.042-0.413,0.102-0.611c2.939,0.138,5.882,0.147,8.819,0.325
		C33.429,32.309,30.455,32.4,27.481,32.481z M37.529,28.916c-0.299,0.193-0.679,0.141-1.018,0.188c-0.54,0-1.122,0.054-1.625-0.181
		c-0.07-0.56,0.083-1.107,0.175-1.656c0.362-2.075,0.733-4.149,1.092-6.227c0.077-0.467-0.022-0.937,0.014-1.402
		c0.104-0.389,0.515-0.52,0.836-0.675c0.688-0.292,1.394-0.551,2.128-0.7c0.055,0.022,0.165,0.07,0.219,0.094
		c0.175,0.356,0.045,0.748-0.01,1.116c-0.494,2.817-0.994,5.636-1.488,8.453C37.785,28.264,37.747,28.635,37.529,28.916z
		 M42.389,28.732c-0.222,1.06-0.366,2.134-0.58,3.193c-0.038,0.215-0.146,0.404-0.254,0.59c-0.372,0.151-0.778,0.139-1.171,0.146
		c-0.469-0.001-0.95,0.022-1.396-0.146c-0.137-0.25-0.092-0.537-0.042-0.805c0.643-3.653,1.287-7.308,1.933-10.961
		c0.062-0.34,0.08-0.708,0.282-1.002c0.238-0.385,0.648-0.613,1.052-0.789c1.283-0.546,2.7-0.796,4.092-0.669
		c1.03,0.096,2.078,0.536,2.697,1.396c0.772,1.034,0.87,2.405,0.697,3.645c-0.233,1.698-0.832,3.429-2.077,4.652
		c-0.752,0.771-1.791,1.26-2.87,1.299C43.94,29.299,43.073,29.212,42.389,28.732z M77.969,32.327
		c-10.743,0.003-21.486,0.003-32.229,0c-0.003-0.07-0.007-0.211-0.009-0.281c10.748-0.01,21.497-0.009,32.245-0.001
		C77.974,32.116,77.972,32.256,77.969,32.327z M83.397,32.449c-0.088,0.178-0.295,0.214-0.461,0.279
		c-0.192-0.097-0.455-0.196-0.463-0.45c-0.086-0.356,0.312-0.722,0.655-0.574C83.417,31.804,83.588,32.188,83.397,32.449z
		 M84.155,20.201c-0.115,0.28-0.409,0.457-0.707,0.453c-0.438,0.01-0.873-0.007-1.309,0.01c-0.156,1.03-0.356,2.054-0.531,3.082
		c-0.119,0.744-0.299,1.479-0.334,2.232c0.047,0.279,0.086,0.58,0.281,0.803c0.207,0.28,0.573,0.331,0.895,0.376
		c0.396-0.058,0.801-0.122,1.199-0.051c0.006,0.195,0,0.396-0.094,0.575c-0.215,0.445-0.437,0.896-0.74,1.29
		c-0.191,0.263-0.532,0.359-0.844,0.369c-0.451,0.015-0.908,0.021-1.353-0.064c-0.705-0.108-1.42-0.392-1.879-0.959
		c-0.386-0.493-0.466-1.147-0.449-1.755c-0.015-0.75,0.155-1.482,0.282-2.216c0.212-1.23,0.439-2.458,0.648-3.689
		c-0.334,0.003-0.676,0.022-0.994-0.092c-0.015-0.168-0.051-0.356,0.07-0.499c0.377-0.523,0.812-1.001,1.21-1.51
		c0.166-0.197,0.158-0.468,0.208-0.707c0.084-0.435,0.145-0.872,0.234-1.305c0.059-0.304,0.333-0.514,0.609-0.613
		c0.713-0.264,1.447-0.482,2.199-0.604c0.119,0.154,0.256,0.32,0.217,0.531c-0.091,0.864-0.31,1.711-0.416,2.573
		c0.453,0.006,0.906-0.009,1.359,0.003c0.15-0.012,0.275,0.082,0.402,0.148C84.508,19.113,84.388,19.705,84.155,20.201z
		 M88.972,32.396c-0.722,0.288-1.521,0.341-2.281,0.202c-0.875-0.183-1.647-0.875-1.838-1.763c-0.225-0.944-0.047-2.06,0.691-2.741
		c0.82-0.793,2.117-0.859,3.15-0.498c0.397,0.092,0.398,0.573,0.455,0.896c-0.397,0.01-0.685-0.331-1.065-0.4
		c-0.66-0.139-1.438-0.093-1.953,0.392c-0.635,0.562-0.741,1.519-0.524,2.298c0.162,0.614,0.703,1.095,1.324,1.208
		c0.776,0.178,1.58-0.038,2.258-0.427C89.267,31.866,89.099,32.138,88.972,32.396z M94.265,31.676
		c-0.496,0.687-1.361,1.032-2.195,0.992c-1,0.051-2.028-0.514-2.432-1.449c-0.455-1.085-0.25-2.514,0.699-3.274
		c0.244-0.189,0.521-0.336,0.818-0.426c0.613-0.171,1.277-0.174,1.889,0.008c0.814,0.245,1.464,0.952,1.639,1.785
		C94.843,30.11,94.767,31.006,94.265,31.676z M102.998,32.304c0.045,0.368-0.692,0.361-0.658,0.002
		c-0.016-1.042,0.005-2.085-0.008-3.126c-0.007-0.32-0.09-0.666-0.332-0.891c-0.438-0.357-1.101-0.353-1.571-0.066
		c-0.486,0.31-0.734,0.889-0.742,1.45c-0.016,0.812-0.002,1.621-0.004,2.433c0.006,0.154-0.037,0.305-0.078,0.454
		c-0.192-0.003-0.385-0.019-0.572-0.044c-0.049-1.137,0.004-2.274-0.026-3.41c-0.026-0.411-0.217-0.858-0.633-1.003
		c-0.472-0.14-1.037-0.104-1.422,0.229c-0.382,0.332-0.563,0.842-0.573,1.339c-0.013,0.614-0.001,1.229-0.004,1.844
		c-0.01,0.349,0.044,0.71-0.082,1.046c-0.188-0.004-0.375-0.018-0.562-0.038c-0.058-1.437-0.002-2.875-0.027-4.312
		c-0.016-0.197-0.067-0.392-0.088-0.589c0.136-0.233,0.467-0.126,0.693-0.146c0.043,0.181,0.068,0.365,0.082,0.553
		c0.838-0.825,2.477-0.926,3.135,0.173c0.597-0.781,1.733-1.012,2.621-0.64c0.554,0.237,0.873,0.84,0.858,1.429
		C103,30.094,103.013,31.2,102.998,32.304z"/>
</g>
</svg>
