<?xml version="1.0" encoding="iso-8859-1"?>
<!DOCTYPE svg>
<svg version="1.1" xmlns="http://www.w3.org/2000/svg" xmlns:xlink="http://www.w3.org/1999/xlink" x="0px" y="0px"
	 width="56.268px" height="75.168px" viewBox="0 0 56.268 75.168" style="enable-background:new 0 0 56.268 75.168;"
	 xml:space="preserve">
<path style="fill:#000;" d="M29.235,48v7.929c1.204-0.242,2.135-0.729,2.79-1.467c0.658-0.737,0.986-1.594,0.986-2.57
	c0-1.05-0.319-1.863-0.957-2.437C31.416,48.884,30.475,48.397,29.235,48z M27.671,16.674h0.713h3.457l8.234-10.42V2.266h-5.691V0h-6
	h-0.713H21.67v2.266h-5.694v3.988l8.237,10.42H27.671z M23.776,39.125c0,0.952,0.266,1.673,0.788,2.163
	c0.527,0.489,1.325,0.931,2.398,1.332v-6.936c-1.001,0.301-1.784,0.7-2.345,1.196C24.056,37.374,23.776,38.124,23.776,39.125z
	 M53.334,61.971c2.998-2.112,9.908-26.263-19.042-42.493h-5.928h-0.459h-5.933C-6.975,35.708-0.065,59.859,2.936,61.971
	c6.257,5.28-1.828,10.427-1.828,10.427l-0.13,2.243c0,0,0,0,3.784,0c9.388-1.715,15.127,0.527,15.127,0.527h8.017h0.459h8.017
	c0,0,5.735-2.243,15.125-0.527c3.781,0,3.781,0,3.781,0l-0.131-2.243C55.157,72.398,47.073,67.251,53.334,61.971z M36.474,55.161
	c-0.638,1.199-1.579,2.184-2.819,2.941c-1.243,0.762-2.713,1.215-4.42,1.363v4.506c0,0.712-0.067,1.23-0.205,1.557
	c-0.138,0.326-0.438,0.49-0.904,0.49c-0.428,0-0.73-0.132-0.902-0.399c-0.174-0.267-0.261-0.676-0.261-1.231v-4.893
	c-1.397-0.155-2.616-0.487-3.661-0.995c-1.044-0.507-1.915-1.137-2.611-1.893c-0.699-0.754-1.214-1.539-1.547-2.353
	c-0.333-0.816-0.503-1.616-0.503-2.399c0-0.581,0.223-1.102,0.672-1.567c0.447-0.463,1.006-0.698,1.673-0.698
	c0.537,0,0.991,0.128,1.359,0.381c0.372,0.252,0.628,0.609,0.769,1.067c0.324,0.99,0.604,1.751,0.841,2.274
	c0.242,0.525,0.6,1.004,1.083,1.441c0.483,0.434,1.124,0.764,1.924,0.995v-8.42c-1.598-0.447-2.935-0.948-4.009-1.495
	c-1.073-0.55-1.944-1.332-2.611-2.346c-0.667-1.014-1.003-2.321-1.003-3.913c0-2.076,0.653-3.779,1.961-5.105
	c1.306-1.329,3.191-2.103,5.662-2.322v-1.917c0-1.014,0.377-1.52,1.126-1.52c0.764,0,1.146,0.497,1.146,1.483v1.954
	c1.277,0.134,2.369,0.4,3.283,0.799c0.912,0.398,1.709,1.002,2.389,1.81c0.537,0.615,0.953,1.25,1.243,1.905
	c0.294,0.648,0.439,1.247,0.439,1.79c0,0.607-0.217,1.128-0.653,1.567c-0.435,0.443-0.962,0.662-1.585,0.662
	c-1.168,0-1.925-0.64-2.273-1.92c-0.392-1.507-1.339-2.509-2.843-3.005v7.533c1.48,0.411,2.657,0.787,3.535,1.123
	c0.875,0.34,1.661,0.826,2.35,1.466c0.742,0.667,1.311,1.458,1.712,2.383c0.396,0.924,0.597,1.936,0.597,3.034
	C37.429,52.67,37.112,53.961,36.474,55.161z"/>
</svg>
