<?xml version="1.0" encoding="iso-8859-1"?>
<!DOCTYPE svg>
<svg version="1.1" xmlns="http://www.w3.org/2000/svg" xmlns:xlink="http://www.w3.org/1999/xlink" x="0px" y="0px"
	 width="145.976px" height="27.394px" viewBox="0 0 145.976 27.394" style="enable-background:new 0 0 145.976 27.394;"
	 xml:space="preserve">
<path style="fill:#000;" d="M28.831,10.449c0-0.677,0.194-1.167,0.582-1.469c0.387-0.303,0.931-0.454,1.634-0.454
	c0.436,0,0.834,0.054,1.198,0.163c0.364,0.109,0.606,0.188,0.727,0.236v9.542c0,1.646,0.387,2.897,1.162,3.756
	c0.774,0.857,1.962,1.288,3.56,1.288c1.597,0,2.782-0.43,3.557-1.288c0.776-0.859,1.162-2.11,1.162-3.756v-8.018
	c0-0.677,0.194-1.167,0.582-1.469c0.386-0.303,0.919-0.454,1.596-0.454c0.461,0,0.873,0.054,1.236,0.163
	c0.363,0.109,0.605,0.188,0.725,0.236v10.45c0,1.232-0.211,2.34-0.633,3.318c-0.426,0.98-1.031,1.809-1.816,2.485
	c-0.787,0.678-1.725,1.193-2.816,1.543c-1.088,0.349-2.286,0.525-3.593,0.525c-1.308,0-2.507-0.176-3.596-0.525
	c-1.091-0.351-2.022-0.865-2.797-1.543c-0.775-0.676-1.38-1.505-1.815-2.485c-0.435-0.979-0.654-2.086-0.654-3.318V10.449z"/>
<path style="fill:#000;" d="M49.82,5.297c0-0.677,0.193-1.167,0.581-1.47c0.387-0.302,0.919-0.452,1.598-0.452
	c0.436,0,0.841,0.054,1.217,0.163c0.375,0.108,0.623,0.188,0.744,0.236v4.753h5.266c0.798,0,1.361,0.163,1.687,0.49
	c0.329,0.327,0.49,0.803,0.49,1.433c0,0.413-0.059,0.792-0.182,1.143c-0.121,0.351-0.217,0.599-0.29,0.743H53.96v8.091
	c0,0.629,0.085,1.144,0.255,1.543c0.168,0.398,0.405,0.719,0.707,0.961c0.303,0.241,0.654,0.412,1.054,0.508
	c0.4,0.096,0.817,0.145,1.253,0.145c0.702,0,1.356-0.109,1.961-0.327c0.605-0.217,1.042-0.422,1.308-0.617l1.671,2.758
	c-0.194,0.146-0.466,0.327-0.817,0.545c-0.351,0.217-0.781,0.423-1.29,0.617c-0.508,0.193-1.077,0.356-1.706,0.49
	c-0.629,0.132-1.319,0.198-2.069,0.198c-2.131,0-3.74-0.549-4.83-1.65c-1.09-1.1-1.635-2.546-1.635-4.335V5.297z"/>
<path style="fill:#000;" d="M73.605,23.511c0.823,0,1.58-0.151,2.271-0.454c0.688-0.302,1.282-0.712,1.778-1.232
	c0.496-0.521,0.878-1.137,1.144-1.851c0.267-0.713,0.399-1.494,0.399-2.339c0-0.847-0.132-1.633-0.399-2.359
	c-0.265-0.725-0.648-1.348-1.144-1.869c-0.497-0.519-1.09-0.931-1.778-1.233c-0.691-0.302-1.448-0.454-2.271-0.454
	c-0.848,0-1.615,0.152-2.306,0.454c-0.689,0.303-1.278,0.72-1.761,1.252c-0.484,0.532-0.866,1.162-1.145,1.887
	c-0.278,0.726-0.417,1.5-0.417,2.323c0,0.87,0.139,1.669,0.417,2.394c0.279,0.727,0.666,1.343,1.163,1.851
	c0.496,0.508,1.089,0.906,1.779,1.197C72.025,23.366,72.782,23.511,73.605,23.511 M63.874,1.923c0-0.653,0.193-1.137,0.581-1.451
	C64.842,0.157,65.387,0,66.088,0c0.436,0,0.835,0.054,1.199,0.163c0.363,0.109,0.604,0.188,0.727,0.236v10.413
	c0.605-0.773,1.44-1.433,2.505-1.978c1.066-0.545,2.288-0.816,3.668-0.816c1.332,0,2.561,0.235,3.687,0.708
	c1.125,0.471,2.107,1.137,2.942,1.995c0.835,0.859,1.488,1.875,1.96,3.048c0.472,1.173,0.708,2.46,0.708,3.864
	c0,1.377-0.242,2.661-0.726,3.846c-0.484,1.185-1.164,2.2-2.033,3.048c-0.872,0.846-1.907,1.511-3.104,1.995
	c-1.199,0.483-2.513,0.726-3.941,0.726c-1.427,0-2.742-0.218-3.939-0.654c-1.198-0.435-2.233-1.088-3.104-1.959
	c-0.871-0.871-1.549-1.958-2.033-3.265s-0.727-2.841-0.727-4.608V1.923z"/>
<path style="fill:#000;" d="M85.916,15.021c0-2.226,0.683-3.949,2.053-5.17c1.366-1.221,3.262-1.833,5.682-1.833
	c1.526,0,2.766,0.213,3.723,0.636c0.956,0.423,1.434,1.07,1.434,1.942c0,0.411-0.115,0.809-0.345,1.196
	c-0.23,0.388-0.418,0.629-0.563,0.727c-0.411-0.194-0.92-0.375-1.525-0.544c-0.606-0.168-1.295-0.254-2.071-0.254
	c-2.831,0-4.248,1.501-4.248,4.5V26.74h-4.14V15.021z"/>
<path style="fill:#000;" d="M112.605,18.613c-0.241-0.048-0.695-0.121-1.361-0.218c-0.668-0.096-1.666-0.145-2.997-0.145
	c-1.647,0-2.844,0.248-3.595,0.745c-0.751,0.496-1.125,1.275-1.125,2.338c0,0.437,0.078,0.835,0.235,1.198
	c0.157,0.363,0.429,0.67,0.817,0.925c0.387,0.254,0.913,0.449,1.581,0.581c0.664,0.133,1.495,0.2,2.488,0.2
	c1.112,0,1.997-0.042,2.65-0.127c0.653-0.084,1.089-0.151,1.307-0.199V18.613z M116.708,26.668
	c-0.241,0.047-0.622,0.102-1.143,0.162c-0.52,0.061-1.132,0.121-1.833,0.182c-0.703,0.06-1.489,0.115-2.362,0.163
	c-0.871,0.047-1.779,0.072-2.722,0.072c-1.889,0-3.433-0.162-4.631-0.489c-1.198-0.328-2.143-0.762-2.831-1.306
	c-0.691-0.545-1.162-1.173-1.417-1.888c-0.254-0.712-0.381-1.444-0.381-2.194c0-0.991,0.151-1.863,0.454-2.612
	c0.302-0.75,0.799-1.379,1.489-1.886c0.689-0.509,1.592-0.889,2.705-1.144c1.113-0.255,2.469-0.381,4.067-0.381
	c0.919,0,1.793,0.031,2.614,0.091c0.822,0.061,1.441,0.116,1.852,0.164c0-0.847-0.139-1.549-0.417-2.104
	c-0.279-0.557-0.66-0.992-1.145-1.307c-0.483-0.314-1.065-0.532-1.743-0.654c-0.677-0.121-1.429-0.181-2.25-0.181
	c-1.38,0-2.488,0.158-3.324,0.473c-0.834,0.313-1.385,0.58-1.652,0.797c-0.145-0.121-0.344-0.351-0.598-0.689
	c-0.254-0.338-0.381-0.749-0.381-1.233c0-0.34,0.091-0.672,0.272-0.999c0.182-0.325,0.502-0.617,0.963-0.871
	c0.459-0.254,1.076-0.453,1.851-0.599c0.775-0.146,1.755-0.218,2.941-0.218c1.428,0,2.73,0.141,3.905,0.417
	c1.175,0.279,2.183,0.72,3.031,1.325c0.848,0.604,1.508,1.404,1.979,2.394c0.473,0.993,0.707,2.189,0.707,3.592V26.668z"/>
<path style="fill:#000;" d="M120.412,10.449c0-0.678,0.194-1.167,0.581-1.469c0.387-0.303,0.932-0.454,1.635-0.454
	c0.434,0,0.835,0.054,1.198,0.163c0.363,0.109,0.605,0.188,0.726,0.236v17.814h-4.139V10.449z M122.482,0.363
	c0.702,0,1.295,0.242,1.779,0.726c0.484,0.484,0.727,1.076,0.727,1.778c0,0.701-0.243,1.293-0.727,1.777
	c-0.484,0.484-1.076,0.725-1.779,0.725c-0.703,0-1.295-0.241-1.78-0.725c-0.484-0.484-0.725-1.076-0.725-1.777
	c0-0.702,0.241-1.294,0.725-1.778C121.187,0.604,121.779,0.363,122.482,0.363"/>
<path style="fill:#000;" d="M128.256,15.746c0-1.208,0.224-2.292,0.672-3.247c0.448-0.956,1.064-1.766,1.853-2.431
	c0.787-0.665,1.718-1.173,2.796-1.524c1.076-0.351,2.257-0.527,3.54-0.527c1.283,0,2.469,0.176,3.558,0.527
	c1.09,0.351,2.028,0.859,2.814,1.524c0.787,0.666,1.399,1.476,1.834,2.431c0.435,0.955,0.653,2.038,0.653,3.247V26.74h-4.139v-9.942
	c0-1.645-0.4-2.896-1.198-3.755c-0.799-0.858-1.974-1.288-3.522-1.288c-1.573,0-2.754,0.429-3.54,1.288
	c-0.787,0.859-1.18,2.11-1.18,3.755v9.942h-4.14V15.746z"/>
<path style="fill:#000;" d="M19.488,23.084c-0.785,0.769-1.705,1.371-2.76,1.807c-1.055,0.436-2.201,0.653-3.438,0.653
	c-1.237,0-2.383-0.218-3.438-0.653c-1.055-0.436-1.974-1.038-2.759-1.807c-0.785-0.769-1.4-1.675-1.844-2.722
	c-0.43-1.01-0.649-2.103-0.664-3.276H6.67c0.022,0.361,0.1,0.699,0.234,1.016c0.161,0.38,0.384,0.71,0.669,0.989
	c0.284,0.279,0.62,0.498,1.002,0.655c0.383,0.16,0.799,0.238,1.249,0.238c0.449,0,0.865-0.079,1.248-0.238
	c0.383-0.157,0.717-0.376,1.002-0.655c0.284-0.278,0.508-0.609,0.669-0.989c0.107-0.251,0.177-0.517,0.214-0.796h0.668
	c0.036,0.279,0.107,0.545,0.213,0.796c0.162,0.38,0.384,0.71,0.668,0.989c0.286,0.279,0.62,0.498,1.004,0.655
	c0.383,0.16,0.798,0.238,1.248,0.238s0.865-0.079,1.249-0.238c0.383-0.157,0.717-0.376,1.001-0.655
	c0.285-0.278,0.509-0.609,0.67-0.989c0.134-0.317,0.211-0.655,0.235-1.016h2.083c-0.014,1.173-0.235,2.267-0.663,3.276
	C20.887,21.409,20.273,22.316,19.488,23.084 M11.702,16.868c0,0.263-0.048,0.508-0.144,0.734c-0.096,0.225-0.229,0.42-0.399,0.586
	c-0.169,0.166-0.367,0.295-0.595,0.389c-0.226,0.095-0.474,0.142-0.74,0.142c-0.267,0-0.514-0.047-0.741-0.142
	c-0.228-0.094-0.426-0.224-0.596-0.389c-0.169-0.167-0.302-0.362-0.397-0.586c-0.096-0.226-0.144-0.471-0.144-0.734
	c0-0.262,0.049-0.507,0.144-0.734c0.095-0.225,0.228-0.421,0.397-0.586c0.17-0.166,0.368-0.295,0.596-0.389
	c0.227-0.095,0.474-0.142,0.741-0.142c0.266,0,0.514,0.046,0.74,0.142c0.228,0.094,0.426,0.223,0.595,0.389
	c0.17,0.165,0.303,0.361,0.399,0.586C11.654,16.361,11.702,16.606,11.702,16.868 M18.635,16.868c0,0.263-0.048,0.508-0.144,0.734
	c-0.096,0.225-0.228,0.42-0.397,0.586c-0.169,0.166-0.369,0.295-0.595,0.389c-0.228,0.095-0.475,0.142-0.742,0.142
	c-0.267,0-0.515-0.047-0.741-0.142c-0.227-0.094-0.426-0.224-0.595-0.389c-0.169-0.167-0.302-0.362-0.398-0.586
	c-0.097-0.226-0.143-0.471-0.143-0.734c0-0.262,0.047-0.507,0.143-0.734c0.096-0.225,0.229-0.421,0.398-0.586
	c0.169-0.166,0.368-0.295,0.595-0.389c0.226-0.095,0.474-0.142,0.741-0.142c0.266,0,0.514,0.046,0.742,0.142
	c0.227,0.094,0.426,0.223,0.595,0.389c0.169,0.165,0.301,0.361,0.397,0.586C18.587,16.361,18.635,16.606,18.635,16.868
	 M5.358,13.335c1.481-0.488,3.446-1.109,3.446-1.109c4.322-1.375,4.899-2.998,4.899-2.998s0.909,1.623,4.048,2.696
	c0,0,1.734,0.569,3.345,1.149c0.08,0.162,0.165,0.321,0.236,0.49c0.284,0.667,0.475,1.371,0.578,2.109h-2.218
	c-0.005-0.012-0.01-0.026-0.015-0.039c-0.161-0.38-0.385-0.708-0.67-0.988s-0.618-0.498-1.001-0.656
	c-0.384-0.159-0.799-0.238-1.249-0.238s-0.865,0.079-1.248,0.238c-0.384,0.158-0.718,0.376-1.004,0.656
	c-0.284,0.279-0.507,0.608-0.668,0.988c-0.052,0.121-0.093,0.243-0.127,0.369h-0.839c-0.035-0.126-0.077-0.249-0.128-0.369
	c-0.161-0.38-0.385-0.708-0.669-0.988c-0.285-0.279-0.619-0.498-1.002-0.656c-0.383-0.159-0.799-0.238-1.248-0.238
	c-0.45,0-0.866,0.079-1.249,0.238c-0.382,0.158-0.718,0.376-1.002,0.656c-0.285,0.279-0.508,0.608-0.669,0.988
	c-0.006,0.013-0.01,0.027-0.015,0.039H4.671c0.102-0.738,0.294-1.441,0.578-2.109C5.282,13.486,5.323,13.414,5.358,13.335
	 M25.564,9.106c-0.678-1.596-1.616-2.98-2.814-4.154c-1.199-1.173-2.603-2.093-4.212-2.758c-1.61-0.665-3.359-0.998-5.248-0.998
	c-1.888,0-3.636,0.333-5.248,0.998C6.432,2.86,5.029,3.78,3.831,4.953C2.633,6.126,1.694,7.51,1.016,9.106
	C0.339,10.703,0,12.433,0,14.294c0,1.864,0.339,3.593,1.016,5.19c0.677,1.596,1.616,2.981,2.814,4.154
	c1.198,1.173,2.602,2.092,4.211,2.757c1.612,0.665,3.36,0.999,5.248,0.999c1.889,0,3.638-0.334,5.248-0.999
	c1.61-0.665,3.014-1.583,4.212-2.757c1.198-1.172,2.136-2.558,2.814-4.154c0.677-1.597,1.015-3.326,1.015-5.19
	C26.58,12.433,26.241,10.703,25.564,9.106"/>
</svg>
