<?xml version="1.0" encoding="iso-8859-1"?>
<!DOCTYPE svg>
<svg version="1.1" xmlns="http://www.w3.org/2000/svg" xmlns:xlink="http://www.w3.org/1999/xlink" x="0px" y="0px"
	 width="133.002px" height="35.384px" viewBox="0 0 133.002 35.384" style="enable-background:new 0 0 133.002 35.384;"
	 xml:space="preserve">
<path style="fill:#000;" d="M89.748,0H79.402c-0.707,0-1.31,0.514-1.419,1.211l-4.184,26.485c-0.083,0.522,0.322,0.995,0.852,0.995
	h5.309c0.495,0,0.917-0.36,0.994-0.848l1.187-7.508c0.11-0.698,0.712-1.211,1.419-1.211h3.274c6.814,0,10.747-3.292,11.775-9.818
	c0.463-2.854,0.019-5.097-1.32-6.667C95.817,0.913,93.209,0,89.748,0z M90.942,9.672c-0.565,3.708-3.401,3.708-6.145,3.708h-1.561
	l1.095-6.922c0.066-0.418,0.428-0.727,0.852-0.727h0.715c1.867,0,3.631,0,4.541,1.062C90.983,7.429,91.147,8.371,90.942,9.672z"/>
<path style="fill:#000;" d="M15.96,0H5.614c-0.708,0-1.31,0.514-1.42,1.211L0.011,27.696c-0.083,0.522,0.322,0.995,0.852,0.995
	h4.939c0.708,0,1.31-0.514,1.42-1.211l1.129-7.145c0.11-0.698,0.712-1.211,1.42-1.211h3.273c6.814,0,10.748-3.292,11.775-9.818
	c0.462-2.854,0.019-5.097-1.32-6.667C22.029,0.913,19.421,0,15.96,0z M17.154,9.672c-0.565,3.708-3.402,3.708-6.145,3.708H9.448
	l1.095-6.922c0.066-0.418,0.427-0.727,0.852-0.727h0.715c1.867,0,3.631,0,4.541,1.062C17.195,7.429,17.359,8.371,17.154,9.672z"/>
<path style="fill:#000;" d="M46.881,9.554h-4.953c-0.425,0-0.786,0.308-0.853,0.727l-0.217,1.383l-0.347-0.501
	c-1.073-1.555-3.464-2.074-5.852-2.074c-5.472,0-10.148,4.141-11.058,9.949c-0.474,2.897,0.199,5.666,1.844,7.598
	c1.512,1.775,3.669,2.515,6.239,2.515c4.412,0,6.858-2.83,6.858-2.83l-0.221,1.375c-0.083,0.522,0.322,0.996,0.852,0.996h4.461
	c0.707,0,1.309-0.514,1.419-1.211l2.678-16.931C47.816,10.026,47.412,9.554,46.881,9.554z M39.978,19.181
	c-0.479,2.826-2.726,4.723-5.592,4.723c-1.437,0-2.587-0.461-3.326-1.334c-0.733-0.866-1.009-2.1-0.776-3.474
	c0.446-2.801,2.729-4.759,5.551-4.759c1.407,0,2.549,0.466,3.303,1.348C39.896,16.571,40.195,17.813,39.978,19.181z"/>
<path style="fill:#000;" d="M120.67,9.554h-4.954c-0.424,0-0.786,0.308-0.852,0.727l-0.218,1.383l-0.346-0.501
	c-1.073-1.555-3.464-2.074-5.852-2.074c-5.473,0-10.148,4.141-11.058,9.949c-0.474,2.897,0.199,5.666,1.844,7.598
	c1.511,1.775,3.668,2.515,6.239,2.515c4.411,0,6.858-2.83,6.858-2.83l-0.221,1.375c-0.083,0.522,0.321,0.996,0.852,0.996h4.461
	c0.707,0,1.309-0.514,1.419-1.211l2.678-16.931C121.605,10.026,121.2,9.554,120.67,9.554z M113.766,19.181
	c-0.479,2.826-2.725,4.723-5.591,4.723c-1.437,0-2.587-0.461-3.327-1.334c-0.732-0.866-1.008-2.1-0.776-3.474
	c0.446-2.801,2.729-4.759,5.551-4.759c1.407,0,2.549,0.466,3.303,1.348C113.685,16.571,113.983,17.813,113.766,19.181z"/>
<path style="fill:#000;" d="M73.267,9.554h-4.979c-0.476,0-0.922,0.236-1.189,0.629l-6.869,10.1l-2.911-9.705
	c-0.182-0.607-0.742-1.023-1.377-1.023h-4.895c-0.591,0-1.007,0.58-0.816,1.139l5.483,16.067l-5.157,7.265
	c-0.405,0.57,0.004,1.359,0.704,1.359h4.974c0.471,0,0.913-0.231,1.182-0.618l16.559-23.86C74.371,10.334,73.962,9.554,73.267,9.554
	z"/>
<path style="fill:#000;" d="M126.509,0.727l-4.247,26.969c-0.082,0.523,0.322,0.995,0.852,0.995h4.271
	c0.707,0,1.309-0.514,1.419-1.211l4.187-26.485C133.074,0.473,132.669,0,132.14,0h-4.779C126.937,0,126.575,0.308,126.509,0.727z"/>
</svg>
