<?xml version="1.0" encoding="iso-8859-1"?>
<!DOCTYPE svg>
<svg version="1.1" xmlns="http://www.w3.org/2000/svg" xmlns:xlink="http://www.w3.org/1999/xlink" x="0px" y="0px"
	 width="31.408px" height="74.371px" viewBox="0 0 31.408 74.371" style="enable-background:new 0 0 31.408 74.371;"
	 xml:space="preserve">
<path style="fill:#000;" d="M15.705,13.152c3.712,0,6.721-2.944,6.721-6.577C22.426,2.944,19.416,0,15.705,0
	c-3.713,0-6.722,2.944-6.722,6.575C8.982,10.208,11.991,13.152,15.705,13.152z"/>
<path style="fill:#000;" d="M31.406,23.342c-0.027-4.884-4.083-8.835-9.082-8.835h-8.981h-0.616H9.085
	c-5,0-9.056,3.952-9.083,8.835C0.001,23.351,0,23.36,0,23.368v17.396c0,1.566,1.299,2.836,2.9,2.836c1.603,0,2.9-1.27,2.9-2.836
	V30.448v-5.8h1.385v6.207v11.115v1.606v26.988c0,2.103,1.744,3.808,3.892,3.808c2.149,0,3.891-1.705,3.891-3.808V43.576h1.472
	v26.988c0,2.103,1.742,3.808,3.892,3.808c2.149,0,3.891-1.705,3.891-3.808V43.576v-1.606V30.854v-6.207h1.385v5.8v10.316
	c0,1.566,1.299,2.836,2.9,2.836c1.601,0,2.9-1.27,2.9-2.836V23.368C31.408,23.36,31.406,23.351,31.406,23.342z"/>
</svg>
