<?xml version="1.0" encoding="iso-8859-1"?>
<!DOCTYPE svg>
<svg version="1.1" xmlns="http://www.w3.org/2000/svg" xmlns:xlink="http://www.w3.org/1999/xlink" x="0px" y="0px"
	 width="129.363px" height="30.985px" viewBox="0 0 129.363 30.985" style="enable-background:new 0 0 129.363 30.985;"
	 xml:space="preserve">
<path style="fill#000;" d="M23.482,0.136L0.039,0L0,6.889l7.562,0.044L7.444,26.921l8.319,0.049l0.115-19.989l7.563,0.044
	L23.482,0.136z"/>
<path style="fill#000;" d="M37.539,14.71c0.023-3.764,0.121-7.641-9.256-7.696c-4.652-0.026-9.875,0.848-10.132,6.342l6.958,0.04
	c0.041-0.828,0.503-1.99,2.81-1.979c1.21,0.007,2.454,0.505,2.445,1.823c-0.007,1.241-1.029,1.537-2.051,1.72
	c-3.822,0.692-11.082,0.423-11.119,6.598c-0.021,4.103,3.105,5.927,6.886,5.949c2.421,0.014,4.731-0.5,6.328-2.296h0.077
	c-0.044,0.526,0.066,1.317,0.252,1.845l7.638,0.045c-0.824-1.247-0.89-2.904-0.88-4.372L37.539,14.71z M30.324,20.09
	c-0.126,2.033-1.456,3.04-3.156,3.031c-1.36-0.009-2.338-0.917-2.333-1.823c0.006-1.316,0.879-1.724,2.545-2.092
	c1.02-0.22,2.044-0.477,2.954-0.924L30.324,20.09z"/>
<path style="fill#000;" d="M51.488,7.149c-2.232-0.012-4.242,0.956-5.384,2.605h-0.075l0.054-9.487l-7.486-0.043l-0.159,26.876
	l7.222,0.043l0.013-2.148h0.075c0.939,1.249,2.065,2.648,5.732,2.67c5.557,0.03,8.273-5.412,8.303-10.305
	C59.81,12.769,58.065,7.188,51.488,7.149z M48.978,22.232c-2.684-0.017-3.274-2.544-3.26-4.876c0.013-2.295,0.633-4.814,3.316-4.798
	c2.686,0.013,3.276,2.541,3.262,4.836C52.283,19.728,51.664,22.244,48.978,22.232z"/>
<path style="fill#000;" d="M88.899,0.121c-4.637-0.027-7.682,1.862-9.313,4.615c-1.598-2.779-4.623-4.708-9.266-4.734
	c-7.374-0.044-10.728,4.753-10.76,10.175c-0.033,5.421,3.267,10.296,10.64,10.339c4.639,0.026,7.684-1.879,9.315-4.644
	c1.596,2.79,4.621,4.737,9.265,4.765c7.374,0.041,10.729-4.795,10.762-10.216C99.572,5,96.272,0.164,88.899,0.121z M70.231,15.095
	c-2.836-0.017-3.197-2.806-3.186-4.875c0.013-2.069,0.406-4.815,3.245-4.798c2.835,0.016,3.197,2.765,3.185,4.835
	C73.461,12.329,73.066,15.111,70.231,15.095z M88.812,15.215c-2.838-0.017-3.199-2.804-3.185-4.875
	c0.012-2.071,0.405-4.817,3.241-4.8c2.835,0.015,3.197,2.766,3.186,4.837C92.041,12.448,91.645,15.232,88.812,15.215z"/>
<path style="fill#000;" d="M100.19,27.469l7.486,0.044l0.159-26.877l-7.486-0.042L100.19,27.469z"/>
<path style="fill#000;" d="M128.479,23.263l0.048-8.019c0.022-3.763,0.12-7.641-9.257-7.693c-4.651-0.029-9.875,0.845-10.134,6.34
	l6.96,0.038c0.041-0.827,0.501-1.99,2.808-1.978c1.212,0.007,2.456,0.504,2.447,1.822c-0.006,1.242-1.03,1.537-2.052,1.72
	c-3.823,0.693-11.079,0.423-11.117,6.598c-0.024,4.103,3.103,5.927,6.886,5.951c2.42,0.014,4.728-0.501,6.326-2.297l0.077,0.001
	c-0.043,0.525,0.068,1.316,0.252,1.845l7.639,0.044C128.538,26.39,128.474,24.731,128.479,23.263z M121.311,20.624
	c-0.125,2.034-1.454,3.04-3.156,3.031c-1.36-0.007-2.338-0.916-2.333-1.82c0.009-1.315,0.877-1.725,2.548-2.094
	c1.019-0.219,2.042-0.478,2.952-0.922L121.311,20.624z"/>
<path style="fill:#000;" d="M62.368,20.385l-0.04,6.511c5.845,2.745,10.45,4.051,16.839,4.089
	c5.863,0.034,11.728-1.213,17.152-3.892l0.036-6.511c-6.062,2.298-10.832,3.288-17.146,3.25
	C73.199,23.798,67.684,22.75,62.368,20.385z"/>
</svg>
